<svg width="16" height="16" viewBox="0 0 16 16" fill="none" xmlns="http://www.w3.org/2000/svg">
<path d="M14 3.33331C14 4.43788 11.3138 5.33331 8.00004 5.33331C4.68634 5.33331 2.00004 4.43788 2.00004 3.33331M14 3.33331C14 2.22874 11.3138 1.33331 8.00004 1.33331C4.68634 1.33331 2.00004 2.22874 2.00004 3.33331M14 3.33331V5.33331M2.00004 3.33331L2.00004 12.6666C1.99633 12.9873 2.22391 13.3035 2.6636 13.5886C3.10329 13.8738 3.7422 14.1195 4.52647 14.3051C5.31074 14.4907 6.21739 14.6108 7.16999 14.6551C8.12258 14.6995 9.09321 14.6669 10 14.56M14 7.99998L12 11.3333H14.6667L12.6667 14.6666M2.00004 7.99998C2.00101 8.31167 2.2205 8.61896 2.64101 8.89735C3.06153 9.17574 3.67142 9.41752 4.42202 9.60339C5.17263 9.78926 6.04317 9.91408 6.96419 9.96789C7.88521 10.0217 8.83121 10.003 9.72671 9.91331" stroke="white" stroke-width="1.33333" stroke-linecap="round" stroke-linejoin="round"/>
</svg>
