<svg width="263" height="133" viewBox="0 0 263 133" fill="none" xmlns="http://www.w3.org/2000/svg">
<path d="M49.0684 10C57.924 10 65.7939 11.3991 72.6787 14.1953L50.7002 33.874C50.6857 33.8615 50.6708 33.8484 50.6562 33.8359L14.8242 65.9443L50.6562 98.0527C50.6977 98.0172 50.739 97.981 50.7803 97.9453L72.8623 117.716C65.7529 120.643 57.5643 122.107 48.2959 122.107H10V10H49.0684ZM94.292 100.013C91.0642 105.046 87.0232 109.257 82.168 112.646L57.5166 90.5752C58.7027 88.924 59.7728 87.1838 60.7148 85.3672L94.292 100.013ZM103.01 70.8418C102.587 78.4293 101.162 85.264 98.7334 91.3467L64.1641 76.2676C64.6079 74.5006 64.9409 72.689 65.1543 70.8418H103.01ZM98.6855 40.4219C101.143 46.5282 102.585 53.4027 103.01 61.0469H65.1543C64.9358 59.1554 64.5928 57.3013 64.1328 55.4941L98.6855 40.4219ZM82.0254 19.2285C86.8845 22.5779 90.9427 26.7594 94.2021 31.7734L60.6553 46.4062C59.7113 44.5995 58.6409 42.8687 57.4551 41.2266L82.0254 19.2285Z" fill="#131313"/>
<path d="M244.456 102.963C245.613 101.614 247.926 99.8789 252.243 99.8789V104.89C247.926 104.004 244.456 105.816 244.456 110.249V118.961H239.907V100.303H244.456V102.963Z" fill="#131313"/>
<path d="M236.386 119C235.114 119 231.452 119 231.452 119C231.452 119 231.297 118.075 231.259 116.803C230.179 118.422 228.406 119.385 225.977 119.385C222.624 119.385 218.846 118.267 218.846 113.988C218.846 109.709 223.086 108.437 226.556 108.013C228.213 107.782 231.259 107.551 231.259 105.546C231.259 104.736 230.603 103.85 228.021 103.85C225.9 103.85 224.59 105.276 224.59 106.433H220.041C220.041 103.657 221.968 100.11 228.175 100.11C234.381 100.11 235.846 103.811 235.846 107.165V116.687C235.846 117.496 236.039 118.499 236.386 119ZM226.517 115.685C229.254 115.685 231.259 113.641 231.259 110.75V109.555C230.681 110.673 229.061 110.981 227.211 111.328C225.091 111.714 223.626 112.408 223.626 113.796C223.626 114.914 224.32 115.685 226.517 115.685Z" fill="#131313"/>
<path d="M207.967 99.8783C213.133 99.8783 216.487 104.234 216.487 109.631C216.487 115.028 213.133 119.385 207.967 119.385C205.5 119.385 203.418 118.382 201.953 116.725V118.961H197.404V91.9756H201.953V102.538C203.418 100.881 205.5 99.8783 207.967 99.8783ZM206.926 115.028C209.894 115.028 211.706 112.6 211.706 109.631C211.706 106.663 209.894 104.234 206.926 104.234C203.958 104.234 202.146 106.663 202.146 109.631C202.146 112.6 203.958 115.028 206.926 115.028Z" fill="#131313"/>
<path d="M193.559 118.961H189.01V91.9756H193.559V118.961Z" fill="#131313"/>
<path d="M176.339 99.8789C182.122 99.8789 185.9 104.235 185.9 109.632C185.9 115.029 182.122 119.385 176.339 119.385C170.557 119.385 166.817 115.029 166.817 109.632C166.817 104.235 170.557 99.8789 176.339 99.8789ZM176.339 115.029C179.308 115.029 181.119 112.6 181.119 109.632C181.119 106.664 179.308 104.235 176.339 104.235C173.371 104.235 171.559 106.664 171.559 109.632C171.559 112.6 173.371 115.029 176.339 115.029Z" fill="#131313"/>
<path d="M154.918 99.8789C160.701 99.8789 164.479 104.235 164.479 109.632C164.479 115.029 160.701 119.385 154.918 119.385C149.136 119.385 145.396 115.029 145.396 109.632C145.396 104.235 149.136 99.8789 154.918 99.8789ZM154.918 115.029C157.887 115.029 159.699 112.6 159.699 109.632C159.699 106.664 157.887 104.235 154.918 104.235C151.95 104.235 150.138 106.664 150.138 109.632C150.138 112.6 151.95 115.029 154.918 115.029Z" fill="#131313"/>
<path d="M149.224 91.9756V96.7558H141.129V118.961H136.156V96.7558H128.061V91.9756H149.224Z" fill="#131313"/>
<path d="M231.798 61.05H236.385V78.8987C236.385 83.1392 233.686 88.035 226.825 88.035C219.963 88.035 217.303 84.2957 217.303 84.2957L219.731 81.0189C219.731 81.0189 222.237 83.8716 226.825 83.8716C231.412 83.8716 231.798 80.5949 231.798 78.6674V77.4723C230.333 79.13 228.289 80.1323 225.784 80.1323C220.618 80.1323 217.303 75.7761 217.303 70.3791C217.303 64.9821 220.618 60.626 225.784 60.626C228.289 60.626 230.333 61.6283 231.798 63.2859V61.05ZM226.825 75.7761C229.793 75.7761 231.605 73.3475 231.605 70.3791C231.605 67.4108 229.793 64.9821 226.825 64.9821C223.856 64.9821 222.044 67.4108 222.044 70.3791C222.044 73.3475 223.856 75.7761 226.825 75.7761Z" fill="#30C16E"/>
<path d="M209.613 61.0498H214.2V79.708H209.613V77.9347C208.264 79.3225 206.452 80.1321 204.216 80.1321C199.05 80.1321 196.352 76.8168 196.352 71.4198V61.0498H200.9V71.227C200.9 74.1954 202.288 76.2 205.257 76.2C208.225 76.2 209.613 73.7713 209.613 70.803V61.0498Z" fill="#30C16E"/>
<path d="M184.702 60.6254C189.868 60.6254 193.222 64.9816 193.222 70.3786C193.222 75.7756 189.868 80.1317 184.702 80.1317C182.235 80.1317 180.153 79.1294 178.689 77.4718V79.7077H174.14V52.7227H178.689V63.2854C180.153 61.6277 182.235 60.6254 184.702 60.6254ZM183.661 75.7756C186.63 75.7756 188.442 73.3469 188.442 70.3786C188.442 67.4102 186.63 64.9816 183.661 64.9816C180.693 64.9816 178.881 67.4102 178.881 70.3786C178.881 73.3469 180.693 75.7756 183.661 75.7756Z" fill="#30C16E"/>
<path d="M170.991 71.2272H156.766C157.074 73.8101 158.809 75.7761 161.469 75.7761C163.32 75.7761 164.707 74.8509 165.517 73.4246L169.796 75.3521C168.254 78.2048 165.324 80.1323 161.469 80.1323C155.687 80.1323 151.947 75.7761 151.947 70.3791C151.947 64.9821 155.687 60.626 161.469 60.626C167.252 60.626 171.03 64.9821 171.03 70.3791C171.03 70.649 171.03 70.9574 170.991 71.2272ZM161.469 64.9821C159.31 64.9821 157.768 66.2543 157.113 68.1047H165.864C165.17 66.2543 163.628 64.9821 161.469 64.9821Z" fill="#30C16E"/>
<path d="M137.929 52.7227C141.669 52.7227 149.61 55.691 149.61 66.2152C149.61 76.7779 142.054 79.7077 137.929 79.7077H128.061L128.099 52.7227H137.929ZM137.505 74.966C139.356 74.966 144.444 73.8866 144.444 66.2152C144.444 58.5823 139.086 57.5029 137.505 57.5029H133.033L132.995 74.966H137.505Z" fill="#30C16E"/>
<path d="M234.658 20.626C240.44 20.626 244.218 24.9821 244.218 30.3791C244.218 35.7761 240.44 40.1323 234.658 40.1323C228.875 40.1323 225.136 35.7761 225.136 30.3791C225.136 24.9821 228.875 20.626 234.658 20.626ZM234.658 35.7761C237.626 35.7761 239.438 33.3475 239.438 30.3791C239.438 27.4108 237.626 24.9821 234.658 24.9821C231.689 24.9821 229.877 27.4108 229.877 30.3791C229.877 33.3475 231.689 35.7761 234.658 35.7761Z" fill="#131313"/>
<path d="M217.419 21.05H222.006V38.8987C222.006 43.1392 219.308 48.035 212.446 48.035C205.584 48.035 202.924 44.2957 202.924 44.2957L205.352 41.0189C205.352 41.0189 207.858 43.8716 212.446 43.8716C217.033 43.8716 217.419 40.5949 217.419 38.6674V37.4723C215.954 39.13 213.911 40.1323 211.405 40.1323C206.239 40.1323 202.924 35.7761 202.924 30.3791C202.924 24.9821 206.239 20.626 211.405 20.626C213.911 20.626 215.954 21.6283 217.419 23.2859V21.05ZM212.446 35.7761C215.414 35.7761 217.226 33.3475 217.226 30.3791C217.226 27.4108 215.414 24.9821 212.446 24.9821C209.477 24.9821 207.665 27.4108 207.665 30.3791C207.665 33.3475 209.477 35.7761 212.446 35.7761Z" fill="#131313"/>
<path d="M191.919 20.626C197.084 20.626 199.821 23.9413 199.821 29.3383V39.7082H195.234V29.5696C195.234 26.5627 193.846 24.5581 190.878 24.5581C187.909 24.5581 186.522 26.9867 186.522 29.9551V39.7082H181.973V21.05H186.522V22.8233C187.871 21.4355 189.683 20.626 191.919 20.626Z" fill="#131313"/>
<path d="M178.45 39.7469C177.178 39.7469 173.516 39.7469 173.516 39.7469C173.516 39.7469 173.362 38.8217 173.323 37.5496C172.244 39.1687 170.471 40.1324 168.042 40.1324C164.688 40.1324 160.91 39.0145 160.91 34.7354C160.91 30.4564 165.151 29.1842 168.62 28.7602C170.278 28.5289 173.323 28.2976 173.323 26.293C173.323 25.4834 172.668 24.5968 170.085 24.5968C167.965 24.5968 166.654 26.0231 166.654 27.1796H162.105C162.105 24.404 164.033 20.8574 170.239 20.8574C176.446 20.8574 177.911 24.5582 177.911 27.9121V37.4339C177.911 38.2435 178.103 39.2458 178.45 39.7469ZM168.582 36.4316C171.319 36.4316 173.323 34.3885 173.323 31.4972V30.3022C172.745 31.4201 171.126 31.7285 169.276 32.0755C167.155 32.461 165.69 33.1549 165.69 34.5427C165.69 35.6606 166.384 36.4316 168.582 36.4316Z" fill="#131313"/>
<path d="M153.148 41.5974V21.0502H157.735V41.5974C157.735 45.6066 155.268 48.0352 151.876 48.0352C148.483 48.0352 146.479 45.9535 146.479 45.9535L148.522 43.1394C148.522 43.1394 149.524 44.2573 151.066 44.2573C152.647 44.2573 153.148 43.1394 153.148 41.5974ZM155.422 18.9685C153.726 18.9685 152.338 17.6578 152.338 16.0773C152.338 14.4582 153.726 13.1475 155.422 13.1475C157.157 13.1475 158.545 14.4582 158.545 16.0773C158.545 17.6578 157.157 18.9685 155.422 18.9685Z" fill="#131313"/>
<path d="M137.929 12.7227C141.669 12.7227 149.61 15.691 149.61 26.2152C149.61 36.7779 142.054 39.7077 137.929 39.7077H128.061L128.099 12.7227H137.929ZM137.505 34.966C139.356 34.966 144.444 33.8866 144.444 26.2152C144.444 18.5823 139.086 17.5029 137.505 17.5029H133.033L132.995 34.966H137.505Z" fill="#131313"/>
</svg>
