<svg width="16" height="16" viewBox="0 0 16 16" fill="none" xmlns="http://www.w3.org/2000/svg">
<path d="M10.6663 14V12.6667C10.6663 11.9594 10.3854 11.2811 9.88529 10.781C9.3852 10.281 8.70692 10 7.99967 10H3.99967C3.29243 10 2.61415 10.281 2.11406 10.781C1.61396 11.2811 1.33301 11.9594 1.33301 12.6667V14M10.6663 2.08533C11.2382 2.23358 11.7446 2.56751 12.1061 3.03471C12.4677 3.50191 12.6638 4.07593 12.6638 4.66667C12.6638 5.25741 12.4677 5.83143 12.1061 6.29863C11.7446 6.76582 11.2382 7.09975 10.6663 7.248M14.6663 14V12.6667C14.6659 12.0758 14.4692 11.5018 14.1073 11.0349C13.7453 10.5679 13.2384 10.2344 12.6663 10.0867M8.66634 4.66667C8.66634 6.13943 7.47243 7.33333 5.99967 7.33333C4.52691 7.33333 3.33301 6.13943 3.33301 4.66667C3.33301 3.19391 4.52691 2 5.99967 2C7.47243 2 8.66634 3.19391 8.66634 4.66667Z" stroke="white" stroke-width="1.33333" stroke-linecap="round" stroke-linejoin="round"/>
</svg>
