<svg width="16" height="16" viewBox="0 0 16 16" fill="none" xmlns="http://www.w3.org/2000/svg">
<path d="M3.33301 6C4.43758 6 5.33301 5.10457 5.33301 4C5.33301 2.89543 4.43758 2 3.33301 2C2.22844 2 1.33301 2.89543 1.33301 4C1.33301 5.10457 2.22844 6 3.33301 6ZM3.33301 6V14M12.6663 10C11.5618 10 10.6663 10.8954 10.6663 12C10.6663 13.1046 11.5618 14 12.6663 14C13.7709 14 14.6663 13.1046 14.6663 12C14.6663 10.8954 13.7709 10 12.6663 10ZM12.6663 10V5.33333C12.6663 4.97971 12.5259 4.64057 12.2758 4.39052C12.0258 4.14048 11.6866 4 11.333 4H7.99967M9.99967 2L7.99967 4L9.99967 6" stroke="white" stroke-width="1.33333" stroke-linecap="round" stroke-linejoin="round"/>
</svg>
