<svg width="16" height="16" viewBox="0 0 16 16" fill="none" xmlns="http://www.w3.org/2000/svg">
<g clip-path="url(#clip0_328_203)">
<path d="M3.26641 10.7333C0.666406 8.13333 0.666406 3.86666 3.26641 1.26666M5.19974 3.13333C4.56727 3.78865 4.17142 4.63618 4.07482 5.54178C3.97822 6.44739 4.1864 7.35935 4.66641 8.13333M7.99974 7.33333C8.73612 7.33333 9.33307 6.73638 9.33307 6C9.33307 5.26362 8.73612 4.66666 7.99974 4.66666C7.26336 4.66666 6.66641 5.26362 6.66641 6C6.66641 6.73638 7.26336 7.33333 7.99974 7.33333ZM7.99974 7.33333L5.33307 14.6667M7.99974 7.33333L10.6664 14.6667M10.7997 3.2C12.1331 4.53333 12.3064 6.60666 11.3331 8.18M12.7331 1.26666C13.3511 1.88342 13.8414 2.61601 14.176 3.4225C14.5105 4.22899 14.6827 5.09354 14.6827 5.96666C14.6827 6.83979 14.5105 7.70434 14.176 8.51083C13.8414 9.31731 13.3511 10.0499 12.7331 10.6667M6.33307 12H9.66641" stroke="white" stroke-width="1.33333" stroke-linecap="round" stroke-linejoin="round"/>
</g>
<defs>
<clipPath id="clip0_328_203">
<rect width="16" height="16" fill="white"/>
</clipPath>
</defs>
</svg>
