<svg width="16" height="16" viewBox="0 0 16 16" fill="none" xmlns="http://www.w3.org/2000/svg">
<path d="M9.33366 1.33335H4.00033C3.6467 1.33335 3.30756 1.47382 3.05752 1.72387C2.80747 1.97392 2.66699 2.31306 2.66699 2.66668V13.3333C2.66699 13.687 2.80747 14.0261 3.05752 14.2762C3.30756 14.5262 3.6467 14.6667 4.00033 14.6667H12.0003C12.3539 14.6667 12.6931 14.5262 12.9431 14.2762C13.1932 14.0261 13.3337 13.687 13.3337 13.3333V5.33335M9.33366 1.33335C9.54469 1.333 9.75371 1.37441 9.94868 1.45519C10.1436 1.53597 10.3207 1.65452 10.4697 1.80401L12.8617 4.19601C13.0116 4.34502 13.1304 4.52224 13.2115 4.71745C13.2925 4.91266 13.334 5.12199 13.3337 5.33335M9.33366 1.33335V4.66668C9.33366 4.84349 9.4039 5.01306 9.52892 5.13808C9.65394 5.26311 9.82351 5.33335 10.0003 5.33335L13.3337 5.33335M6.66699 6.00001H5.33366M10.667 8.66668H5.33366M10.667 11.3333H5.33366" stroke="white" stroke-width="1.33333" stroke-linecap="round" stroke-linejoin="round"/>
</svg>
