<svg width="171" height="206" viewBox="0 0 171 206" fill="none" xmlns="http://www.w3.org/2000/svg">
<path d="M71.7881 0C88.0608 1.20318e-05 102.522 2.57168 115.173 7.70996L74.7861 43.8682C74.7595 43.8452 74.7328 43.8217 74.7061 43.7988L8.86328 102.799L74.7061 161.799C74.7822 161.734 74.8578 161.667 74.9336 161.602L115.51 197.929C102.446 203.307 87.3994 206 70.3682 206H0V0H71.7881ZM154.887 165.401C148.956 174.65 141.532 182.389 132.61 188.615L87.3115 148.059C89.4911 145.024 91.4575 141.827 93.1885 138.489L154.887 165.401ZM170.907 111.799C170.13 125.741 167.511 138.299 163.049 149.476L99.5273 121.768C100.343 118.521 100.954 115.193 101.346 111.799H170.907ZM162.961 55.9004C167.477 67.1208 170.126 79.7527 170.907 93.7988H101.346C100.944 90.3229 100.314 86.9166 99.4688 83.5957L162.961 55.9004ZM132.348 16.958C141.276 23.1125 148.734 30.7954 154.724 40.0088L93.0791 66.8975C91.3446 63.5776 89.3782 60.3973 87.1992 57.3799L132.348 16.958Z" fill="#131313"/>
</svg>
