<svg width="501" height="100" viewBox="0 0 501 100" fill="none" xmlns="http://www.w3.org/2000/svg">
<path d="M394.224 42.7056C395.43 41.2976 397.844 39.4873 402.35 39.4873V44.717C397.844 43.7917 394.224 45.6825 394.224 50.3087V59.4004H389.477V39.9298H394.224V42.7056Z" fill="white"/>
<path d="M385.801 59.4414C384.473 59.4414 380.652 59.4414 380.652 59.4414C380.652 59.4414 380.491 58.4759 380.451 57.1484C379.324 58.838 377.474 59.8437 374.939 59.8437C371.439 59.8437 367.497 58.6771 367.497 54.2117C367.497 49.7464 371.922 48.4188 375.543 47.9763C377.273 47.7349 380.451 47.4936 380.451 45.4017C380.451 44.5569 379.767 43.6316 377.071 43.6316C374.859 43.6316 373.491 45.1201 373.491 46.3269H368.744C368.744 43.4305 370.756 39.7295 377.232 39.7295C383.709 39.7295 385.238 43.5914 385.238 47.0913V57.0277C385.238 57.8725 385.439 58.9184 385.801 59.4414ZM375.503 55.9818C378.359 55.9818 380.451 53.8497 380.451 50.8325V49.5854C379.847 50.7521 378.158 51.0739 376.227 51.436C374.014 51.8382 372.485 52.5623 372.485 54.0106C372.485 55.1772 373.21 55.9818 375.503 55.9818Z" fill="white"/>
<path d="M356.146 39.488C361.536 39.488 365.036 44.0338 365.036 49.6658C365.036 55.2978 361.536 59.8436 356.146 59.8436C353.571 59.8436 351.399 58.7977 349.87 57.0678V59.4011H345.123V31.2412H349.87V42.2638C351.399 40.534 353.571 39.488 356.146 39.488ZM355.059 55.2978C358.157 55.2978 360.048 52.7634 360.048 49.6658C360.048 46.5682 358.157 44.0338 355.059 44.0338C351.962 44.0338 350.071 46.5682 350.071 49.6658C350.071 52.7634 351.962 55.2978 355.059 55.2978Z" fill="white"/>
<path d="M341.109 59.4011H336.362V31.2412H341.109V59.4011Z" fill="white"/>
<path d="M323.141 39.4873C329.175 39.4873 333.117 44.0331 333.117 49.6651C333.117 55.2971 329.175 59.8429 323.141 59.8429C317.106 59.8429 313.204 55.2971 313.204 49.6651C313.204 44.0331 317.106 39.4873 323.141 39.4873ZM323.141 55.2971C326.238 55.2971 328.129 52.7627 328.129 49.6651C328.129 46.5675 326.238 44.0331 323.141 44.0331C320.043 44.0331 318.152 46.5675 318.152 49.6651C318.152 52.7627 320.043 55.2971 323.141 55.2971Z" fill="white"/>
<path d="M300.787 39.4873C306.821 39.4873 310.764 44.0331 310.764 49.6651C310.764 55.2971 306.821 59.8429 300.787 59.8429C294.753 59.8429 290.851 55.2971 290.851 49.6651C290.851 44.0331 294.753 39.4873 300.787 39.4873ZM300.787 55.2971C303.885 55.2971 305.775 52.7627 305.775 49.6651C305.775 46.5675 303.885 44.0331 300.787 44.0331C297.689 44.0331 295.799 46.5675 295.799 49.6651C295.799 52.7627 297.689 55.2971 300.787 55.2971Z" fill="white"/>
<path d="M294.845 31.2412V36.2295H286.397V59.4011H281.208V36.2295H272.76V31.2412H294.845Z" fill="white"/>
<path d="M254.276 39.9298H259.063V58.5556C259.063 62.9807 256.247 68.0897 249.087 68.0897C241.926 68.0897 239.15 64.1875 239.15 64.1875L241.685 60.7681C241.685 60.7681 244.3 63.745 249.087 63.745C253.874 63.745 254.276 60.3256 254.276 58.3142V57.0671C252.748 58.7969 250.615 59.8429 248.001 59.8429C242.61 59.8429 239.15 55.2971 239.15 49.6651C239.15 44.0331 242.61 39.4873 248.001 39.4873C250.615 39.4873 252.748 40.5332 254.276 42.2631V39.9298ZM249.087 55.2971C252.184 55.2971 254.075 52.7627 254.075 49.6651C254.075 46.5675 252.184 44.0331 249.087 44.0331C245.989 44.0331 244.098 46.5675 244.098 49.6651C244.098 52.7627 245.989 55.2971 249.087 55.2971Z" fill="#30C16E"/>
<path d="M231.127 39.9307H235.914V59.4012H231.127V57.5507C229.719 58.9989 227.828 59.8437 225.495 59.8437C220.104 59.8437 217.288 56.3841 217.288 50.7521V39.9307H222.035V50.551C222.035 53.6485 223.483 55.7404 226.581 55.7404C229.678 55.7404 231.127 53.206 231.127 50.1084V39.9307Z" fill="#30C16E"/>
<path d="M205.132 39.488C210.523 39.488 214.022 44.0338 214.022 49.6658C214.022 55.2978 210.523 59.8436 205.132 59.8436C202.557 59.8436 200.385 58.7977 198.856 57.0678V59.4011H194.109V31.2412H198.856V42.2638C200.385 40.534 202.557 39.488 205.132 39.488ZM204.046 55.2978C207.143 55.2978 209.034 52.7634 209.034 49.6658C209.034 46.5682 207.143 44.0338 204.046 44.0338C200.948 44.0338 199.057 46.5682 199.057 49.6658C199.057 52.7634 200.948 55.2978 204.046 55.2978Z" fill="#30C16E"/>
<path d="M190.824 50.5501H175.98C176.302 53.2454 178.112 55.2971 180.888 55.2971C182.819 55.2971 184.267 54.3316 185.112 52.8431L189.577 54.8545C187.968 57.8315 184.91 59.8429 180.888 59.8429C174.853 59.8429 170.951 55.2971 170.951 49.6651C170.951 44.0331 174.853 39.4873 180.888 39.4873C186.922 39.4873 190.864 44.0331 190.864 49.6651C190.864 49.9467 190.864 50.2685 190.824 50.5501ZM180.888 44.0331C178.635 44.0331 177.026 45.3606 176.342 47.2916H185.474C184.75 45.3606 183.14 44.0331 180.888 44.0331Z" fill="#30C16E"/>
<path d="M156.322 31.2412C160.224 31.2412 168.511 34.3388 168.511 45.3211C168.511 56.3437 160.626 59.4011 156.322 59.4011H146.023L146.064 31.2412H156.322ZM155.879 54.453C157.81 54.453 163.121 53.3266 163.121 45.3211C163.121 37.3559 157.529 36.2295 155.879 36.2295H151.213L151.173 54.453H155.879Z" fill="#30C16E"/>
<path d="M121.527 39.4873C127.561 39.4873 131.504 44.0331 131.504 49.6651C131.504 55.2971 127.561 59.8429 121.527 59.8429C115.493 59.8429 111.591 55.2971 111.591 49.6651C111.591 44.0331 115.493 39.4873 121.527 39.4873ZM121.527 55.2971C124.625 55.2971 126.516 52.7627 126.516 49.6651C126.516 46.5675 124.625 44.0331 121.527 44.0331C118.43 44.0331 116.539 46.5675 116.539 49.6651C116.539 52.7627 118.43 55.2971 121.527 55.2971Z" fill="white"/>
<path d="M103.538 39.9298H108.325V58.5556C108.325 62.9807 105.509 68.0897 98.3485 68.0897C91.1879 68.0897 88.4121 64.1875 88.4121 64.1875L90.9465 60.7681C90.9465 60.7681 93.5613 63.745 98.3485 63.745C103.136 63.745 103.538 60.3256 103.538 58.3142V57.0671C102.009 58.7969 99.8772 59.8429 97.2624 59.8429C91.8718 59.8429 88.4121 55.2971 88.4121 49.6651C88.4121 44.0331 91.8718 39.4873 97.2624 39.4873C99.8772 39.4873 102.009 40.5332 103.538 42.2631V39.9298ZM98.3485 55.2971C101.446 55.2971 103.337 52.7627 103.337 49.6651C103.337 46.5675 101.446 44.0331 98.3485 44.0331C95.2509 44.0331 93.3602 46.5675 93.3602 49.6651C93.3602 52.7627 95.2509 55.2971 98.3485 55.2971Z" fill="white"/>
<path d="M76.9278 39.4873C82.3184 39.4873 85.1746 42.9469 85.1746 48.5789V59.4004H80.3874V48.8203C80.3874 45.6825 78.9392 43.5906 75.8416 43.5906C72.744 43.5906 71.2958 46.125 71.2958 49.2226V59.4004H66.5488V39.9298H71.2958V41.7803C72.7038 40.3321 74.5945 39.4873 76.9278 39.4873Z" fill="white"/>
<path d="M62.8733 59.4414C61.5457 59.4414 57.724 59.4414 57.724 59.4414C57.724 59.4414 57.5631 58.4759 57.5229 57.1484C56.3965 58.838 54.546 59.8437 52.0116 59.8437C48.5117 59.8437 44.5693 58.6771 44.5693 54.2117C44.5693 49.7464 48.9945 48.4188 52.615 47.9763C54.3448 47.7349 57.5229 47.4936 57.5229 45.4017C57.5229 44.5569 56.839 43.6316 54.1437 43.6316C51.9311 43.6316 50.5634 45.1201 50.5634 46.3269H45.8164C45.8164 43.4305 47.8278 39.7295 54.3046 39.7295C60.7814 39.7295 62.3101 43.5914 62.3101 47.0913V57.0277C62.3101 57.8725 62.5112 58.9184 62.8733 59.4414ZM52.5748 55.9818C55.431 55.9818 57.5229 53.8497 57.5229 50.8325V49.5854C56.9195 50.7521 55.2299 51.0739 53.2989 51.436C51.0863 51.8382 49.5577 52.5623 49.5577 54.0106C49.5577 55.1772 50.2818 55.9818 52.5748 55.9818Z" fill="white"/>
<path d="M36.4683 61.3721V39.9304H41.2555V61.3721C41.2555 65.5559 38.6809 68.0903 35.1408 68.0903C31.6007 68.0903 29.5088 65.9179 29.5088 65.9179L31.6409 62.9813C31.6409 62.9813 32.6868 64.1479 34.296 64.1479C35.9453 64.1479 36.4683 62.9813 36.4683 61.3721ZM38.8418 37.7581C37.0717 37.7581 35.6235 36.3903 35.6235 34.7409C35.6235 33.0514 37.0717 31.6836 38.8418 31.6836C40.6521 31.6836 42.1003 33.0514 42.1003 34.7409C42.1003 36.3903 40.6521 37.7581 38.8418 37.7581Z" fill="white"/>
<path d="M20.5123 31.2412C24.4145 31.2412 32.7015 34.3388 32.7015 45.3211C32.7015 56.3437 24.8168 59.4011 20.5123 59.4011H10.2139L10.2541 31.2412H20.5123ZM20.0698 54.453C22.0008 54.453 27.3109 53.3266 27.3109 45.3211C27.3109 37.3559 21.7192 36.2295 20.0698 36.2295H15.4033L15.3631 54.453H20.0698Z" fill="white"/>
<path d="M452.445 10C458.699 10 464.256 10.9873 469.118 12.9619L453.598 26.8584C453.587 26.8496 453.577 26.8399 453.566 26.8311L428.264 49.5049L453.566 72.1787C453.596 72.1536 453.625 72.1277 453.654 72.1025L469.247 86.0625C464.227 88.1295 458.444 89.165 451.899 89.165H424.857V10H452.445ZM484.38 73.5625C482.101 77.1169 479.248 80.0907 475.819 82.4834L458.411 66.8984C459.249 65.7324 460.004 64.5035 460.669 63.2207L484.38 73.5625ZM490.536 52.9639C490.238 58.3215 489.23 63.1473 487.516 67.4424L463.105 56.7949C463.419 55.5473 463.653 54.2682 463.804 52.9639H490.536ZM487.482 31.4814C489.218 35.7934 490.236 40.6479 490.536 46.0459H463.804C463.649 44.7103 463.408 43.4011 463.083 42.125L487.482 31.4814ZM475.718 16.5166C479.149 18.8816 482.015 21.8337 484.316 25.374L460.627 35.708C459.96 34.4323 459.205 33.2103 458.367 32.0508L475.718 16.5166Z" fill="white"/>
</svg>
