<svg width="274" height="194" viewBox="0 0 274 194" fill="none" xmlns="http://www.w3.org/2000/svg">
<path d="M129.112 10C138.247 10 146.366 11.4437 153.468 14.3281L130.795 34.6279C130.78 34.6151 130.765 34.6017 130.75 34.5889L93.7861 67.7119L130.75 100.835C130.793 100.798 130.835 100.76 130.878 100.724L153.658 121.118C146.324 124.138 137.877 125.649 128.315 125.649H88.8096V10H129.112ZM175.764 102.857C172.434 108.05 168.266 112.394 163.258 115.89L137.827 93.1211C139.051 91.4178 140.154 89.6229 141.126 87.749L175.764 102.857ZM184.757 72.7646C184.321 80.5914 182.851 87.6415 180.346 93.916L144.685 78.3613C145.142 76.5386 145.486 74.6702 145.706 72.7646H184.757ZM180.297 41.3828C182.832 47.682 184.319 54.7736 184.758 62.6592H145.706C145.481 60.708 145.127 58.7959 144.652 56.9316L180.297 41.3828ZM163.11 19.5205C168.123 22.9756 172.31 27.2887 175.672 32.4609L141.064 47.5566C140.091 45.693 138.987 43.9078 137.764 42.2139L163.11 19.5205Z" fill="white"/>
<path d="M258.364 167.065C259.145 166.154 260.706 164.983 263.62 164.983V168.366C260.706 167.767 258.364 168.99 258.364 171.982V177.862H255.294V165.27H258.364V167.065Z" fill="white"/>
<path d="M252.916 177.889C252.058 177.889 249.586 177.889 249.586 177.889C249.586 177.889 249.482 177.264 249.456 176.406C248.728 177.498 247.531 178.149 245.892 178.149C243.628 178.149 241.078 177.394 241.078 174.506C241.078 171.618 243.94 170.76 246.282 170.473C247.401 170.317 249.456 170.161 249.456 168.808C249.456 168.262 249.014 167.663 247.27 167.663C245.839 167.663 244.955 168.626 244.955 169.407H241.885C241.885 167.533 243.186 165.14 247.375 165.14C251.564 165.14 252.552 167.637 252.552 169.901V176.328C252.552 176.874 252.682 177.55 252.916 177.889ZM246.256 175.651C248.103 175.651 249.456 174.272 249.456 172.321V171.514C249.066 172.269 247.973 172.477 246.724 172.711C245.293 172.971 244.304 173.439 244.304 174.376C244.304 175.131 244.773 175.651 246.256 175.651Z" fill="white"/>
<path d="M233.736 164.983C237.223 164.983 239.487 167.923 239.487 171.566C239.487 175.208 237.223 178.148 233.736 178.148C232.071 178.148 230.666 177.472 229.678 176.353V177.862H226.607V159.649H229.678V166.778C230.666 165.66 232.071 164.983 233.736 164.983ZM233.034 175.208C235.037 175.208 236.26 173.569 236.26 171.566C236.26 169.562 235.037 167.923 233.034 167.923C231.031 167.923 229.808 169.562 229.808 171.566C229.808 173.569 231.031 175.208 233.034 175.208Z" fill="white"/>
<path d="M224.012 177.862H220.941V159.649H224.012V177.862Z" fill="white"/>
<path d="M212.39 164.983C216.293 164.983 218.843 167.923 218.843 171.566C218.843 175.209 216.293 178.149 212.39 178.149C208.488 178.149 205.964 175.209 205.964 171.566C205.964 167.923 208.488 164.983 212.39 164.983ZM212.39 175.209C214.394 175.209 215.617 173.569 215.617 171.566C215.617 169.563 214.394 167.923 212.39 167.923C210.387 167.923 209.164 169.563 209.164 171.566C209.164 173.569 210.387 175.209 212.39 175.209Z" fill="white"/>
<path d="M197.932 164.983C201.835 164.983 204.385 167.923 204.385 171.566C204.385 175.209 201.835 178.149 197.932 178.149C194.03 178.149 191.506 175.209 191.506 171.566C191.506 167.923 194.03 164.983 197.932 164.983ZM197.932 175.209C199.936 175.209 201.159 173.569 201.159 171.566C201.159 169.563 199.936 167.923 197.932 167.923C195.929 167.923 194.706 169.563 194.706 171.566C194.706 173.569 195.929 175.209 197.932 175.209Z" fill="white"/>
<path d="M194.09 159.649V162.876H188.626V177.862H185.27V162.876H179.806V159.649H194.09Z" fill="white"/>
<path d="M167.851 165.27H170.947V177.316C170.947 180.178 169.126 183.482 164.495 183.482C159.864 183.482 158.068 180.959 158.068 180.959L159.708 178.747C159.708 178.747 161.399 180.672 164.495 180.672C167.591 180.672 167.851 178.461 167.851 177.16V176.353C166.863 177.472 165.484 178.149 163.792 178.149C160.306 178.149 158.068 175.209 158.068 171.566C158.068 167.923 160.306 164.983 163.792 164.983C165.484 164.983 166.863 165.66 167.851 166.779V165.27ZM164.495 175.209C166.498 175.209 167.721 173.569 167.721 171.566C167.721 169.563 166.498 167.923 164.495 167.923C162.491 167.923 161.269 169.563 161.269 171.566C161.269 173.569 162.491 175.209 164.495 175.209Z" fill="#30C16E"/>
<path d="M152.879 165.27H155.975V177.862H152.879V176.666C151.968 177.602 150.746 178.149 149.236 178.149C145.75 178.149 143.929 175.911 143.929 172.268V165.27H146.999V172.138C146.999 174.142 147.936 175.495 149.939 175.495C151.942 175.495 152.879 173.856 152.879 171.852V165.27Z" fill="#30C16E"/>
<path d="M136.067 164.983C139.553 164.983 141.817 167.923 141.817 171.566C141.817 175.208 139.553 178.148 136.067 178.148C134.401 178.148 132.996 177.472 132.008 176.353V177.862H128.938V159.649H132.008V166.778C132.996 165.66 134.401 164.983 136.067 164.983ZM135.364 175.208C137.367 175.208 138.59 173.569 138.59 171.566C138.59 169.562 137.367 167.923 135.364 167.923C133.361 167.923 132.138 169.562 132.138 171.566C132.138 173.569 133.361 175.208 135.364 175.208Z" fill="#30C16E"/>
<path d="M126.812 172.138H117.211C117.419 173.882 118.59 175.209 120.386 175.209C121.634 175.209 122.571 174.584 123.117 173.621L126.005 174.922C124.965 176.848 122.987 178.149 120.386 178.149C116.483 178.149 113.959 175.209 113.959 171.566C113.959 167.923 116.483 164.983 120.386 164.983C124.288 164.983 126.838 167.923 126.838 171.566C126.838 171.748 126.838 171.956 126.812 172.138ZM120.386 167.923C118.928 167.923 117.888 168.782 117.445 170.031H123.352C122.883 168.782 121.843 167.923 120.386 167.923Z" fill="#30C16E"/>
<path d="M104.498 159.649C107.021 159.649 112.381 161.653 112.381 168.756C112.381 175.885 107.282 177.862 104.498 177.862H97.8369L97.8629 159.649H104.498ZM104.211 174.662C105.46 174.662 108.895 173.933 108.895 168.756C108.895 163.604 105.278 162.876 104.211 162.876H101.193L101.167 174.662H104.211Z" fill="#30C16E"/>
<path d="M81.9939 164.983C85.8967 164.983 88.4465 167.923 88.4465 171.566C88.4465 175.209 85.8967 178.149 81.9939 178.149C78.0912 178.149 75.5674 175.209 75.5674 171.566C75.5674 167.923 78.0912 164.983 81.9939 164.983ZM81.9939 175.209C83.9973 175.209 85.2202 173.569 85.2202 171.566C85.2202 169.563 83.9973 167.923 81.9939 167.923C79.9905 167.923 78.7676 169.563 78.7676 171.566C78.7676 173.569 79.9905 175.209 81.9939 175.209Z" fill="white"/>
<path d="M70.3591 165.27H73.4552V177.316C73.4552 180.178 71.634 183.482 67.0027 183.482C62.3714 183.482 60.5762 180.959 60.5762 180.959L62.2153 178.747C62.2153 178.747 63.9065 180.672 67.0027 180.672C70.0989 180.672 70.3591 178.461 70.3591 177.16V176.353C69.3704 177.472 67.9914 178.149 66.3002 178.149C62.8137 178.149 60.5762 175.209 60.5762 171.566C60.5762 167.923 62.8137 164.983 66.3002 164.983C67.9914 164.983 69.3704 165.66 70.3591 166.779V165.27ZM67.0027 175.209C69.0061 175.209 70.229 173.569 70.229 171.566C70.229 169.563 69.0061 167.923 67.0027 167.923C64.9993 167.923 63.7764 169.563 63.7764 171.566C63.7764 173.569 64.9993 175.209 67.0027 175.209Z" fill="white"/>
<path d="M53.1483 164.983C56.6347 164.983 58.482 167.221 58.482 170.864V177.862H55.3858V171.02C55.3858 168.99 54.4492 167.637 52.4458 167.637C50.4424 167.637 49.5057 169.276 49.5057 171.28V177.862H46.4355V165.27H49.5057V166.466C50.4163 165.53 51.6392 164.983 53.1483 164.983Z" fill="white"/>
<path d="M44.059 177.889C43.2004 177.889 40.7287 177.889 40.7287 177.889C40.7287 177.889 40.6246 177.264 40.5986 176.406C39.8701 177.498 38.6733 178.149 37.0341 178.149C34.7705 178.149 32.2207 177.394 32.2207 174.506C32.2207 171.618 35.0827 170.76 37.4244 170.473C38.5432 170.317 40.5986 170.161 40.5986 168.808C40.5986 168.262 40.1563 167.663 38.4131 167.663C36.9821 167.663 36.0974 168.626 36.0974 169.407H33.0273C33.0273 167.533 34.3282 165.14 38.5171 165.14C42.7061 165.14 43.6948 167.637 43.6948 169.901V176.328C43.6948 176.874 43.8249 177.55 44.059 177.889ZM37.3984 175.651C39.2457 175.651 40.5986 174.272 40.5986 172.321V171.514C40.2083 172.269 39.1156 172.477 37.8667 172.711C36.4357 172.971 35.447 173.439 35.447 174.376C35.447 175.131 35.9153 175.651 37.3984 175.651Z" fill="white"/>
<path d="M26.9807 179.137V165.269H30.0768V179.137C30.0768 181.843 28.4117 183.482 26.1221 183.482C23.8324 183.482 22.4795 182.077 22.4795 182.077L23.8585 180.178C23.8585 180.178 24.5349 180.932 25.5757 180.932C26.6424 180.932 26.9807 180.178 26.9807 179.137ZM28.5157 163.864C27.3709 163.864 26.4343 162.98 26.4343 161.913C26.4343 160.82 27.3709 159.936 28.5157 159.936C29.6866 159.936 30.6232 160.82 30.6232 161.913C30.6232 162.98 29.6866 163.864 28.5157 163.864Z" fill="white"/>
<path d="M16.6607 159.649C19.1845 159.649 24.5442 161.653 24.5442 168.756C24.5442 175.885 19.4447 177.862 16.6607 177.862H10L10.026 159.649H16.6607ZM16.3745 174.662C17.6234 174.662 21.0578 173.933 21.0578 168.756C21.0578 163.604 17.4412 162.876 16.3745 162.876H13.3564L13.3303 174.662H16.3745Z" fill="white"/>
</svg>
